<?xml version="1.0" encoding="UTF-8"?>
<svg version="1.1" xmlns="http://www.w3.org/2000/svg" width="500" height="500">
<path d="M0 0 C165 0 330 0 500 0 C500 165 500 330 500 500 C335 500 170 500 0 500 C0 335 0 170 0 0 Z " fill="#000000" transform="translate(0,0)"/>
<path d="M0 0 C1.16781006 0.00523682 2.33562012 0.01047363 3.53881836 0.01586914 C4.79887695 0.0190918 6.05893555 0.02231445 7.35717773 0.02563477 C8.6976732 0.03399136 10.03816799 0.04245632 11.37866211 0.05102539 C12.72306153 0.05603879 14.06746271 0.06060197 15.41186523 0.06469727 C18.71334367 0.07653052 22.01472378 0.0938526 25.31616211 0.11352539 C17.94587481 15.94948171 10.16071849 31.57348794 2.34408879 47.19199753 C0.55145736 50.77469019 -1.23918737 54.35837575 -3.03016663 57.94189453 C-6.0266528 63.93667151 -9.02479896 69.93061599 -12.02392578 75.92407227 C-15.48869634 82.84813511 -18.95054094 89.77365508 -22.41093057 96.69990826 C-25.3973325 102.67724596 -28.3852882 108.65380502 -31.37455183 114.6297121 C-33.15377238 118.1865969 -34.93245617 121.74374732 -36.70973015 125.30160522 C-38.37340478 128.63183845 -40.03902619 131.96109068 -41.70616913 135.28958893 C-42.6087743 137.0928448 -43.50940851 138.89708679 -44.4099884 140.70135498 C-44.94665131 141.77186096 -45.48331421 142.84236694 -46.03623962 143.9453125 C-46.50203902 144.87653427 -46.96783842 145.80775604 -47.44775295 146.76719666 C-48.68383789 149.11352539 -48.68383789 149.11352539 -50.68383789 152.11352539 C-58.13475005 138.08056548 -65.43645225 123.97406207 -72.6015625 109.79296875 C-73.79495703 107.43828232 -74.99297305 105.08679953 -76.20019531 102.73925781 C-77.96392899 99.30252385 -79.70681865 95.85592723 -81.44555664 92.40649414 C-82.25932014 90.83619698 -82.25932014 90.83619698 -83.08952332 89.23417664 C-83.57786148 88.25487686 -84.06619965 87.27557709 -84.56933594 86.26660156 C-85.00328171 85.41345871 -85.43722748 84.56031586 -85.88432312 83.68132019 C-87.53198009 78.38955428 -85.3695129 73.99284699 -82.96118164 69.27758789 C-82.15390625 67.68237305 -82.15390625 67.68237305 -81.33032227 66.05493164 C-80.76635742 64.96051758 -80.20239258 63.86610352 -79.62133789 62.73852539 C-79.05350586 61.6209082 -78.48567383 60.50329102 -77.90063477 59.35180664 C-76.50220485 56.60195286 -75.0964312 53.85612279 -73.68383789 51.11352539 C-71.3386261 53.26144229 -69.91573117 55.28225043 -68.50732422 58.12597656 C-67.90704155 59.32688179 -67.90704155 59.32688179 -67.29463196 60.55204773 C-66.87264023 61.41151505 -66.4506485 62.27098236 -66.01586914 63.15649414 C-65.57619308 64.04009109 -65.13651703 64.92368805 -64.68351746 65.83406067 C-63.28212932 68.65361378 -61.88914917 71.47722718 -60.49633789 74.30102539 C-59.54701938 76.21471042 -58.59715604 78.12812528 -57.64672852 80.04125977 C-55.31943666 84.72889975 -52.99903227 89.4198998 -50.68383789 94.11352539 C-44.10093959 81.89676771 -37.8448923 69.52158565 -31.64868164 57.10571289 C-31.04371794 55.8936253 -31.04371794 55.8936253 -30.42653275 54.65705109 C-27.48863627 48.76895247 -24.55465984 42.87890393 -21.62133789 36.98852539 C-18.65625534 31.03469308 -15.6898171 25.0815435 -12.72006416 19.13003922 C-11.53902624 16.76148624 -10.36039866 14.39174418 -9.18186951 12.02194214 C-8.46641499 10.58740523 -7.75085019 9.15292333 -7.03515625 7.71850586 C-6.70848465 7.05999634 -6.38181305 6.40148682 -6.04524231 5.72302246 C-3.25285847 0.13759476 -3.25285847 0.13759476 0 0 Z " fill="#FDFDFD" transform="translate(370.683837890625,181.886474609375)"/>
<path d="M0 0 C10.18887001 -0.06989244 20.37768182 -0.12300879 30.56674385 -0.15543652 C35.29930286 -0.17100992 40.03169636 -0.19209366 44.76416016 -0.22631836 C49.34184238 -0.25921183 53.91936665 -0.2769154 58.49715805 -0.28463173 C60.23283241 -0.29012196 61.96849934 -0.30084087 63.70410538 -0.31719017 C82.10205671 -0.48340921 97.37661634 1.65161056 111.578125 14.328125 C118.07832937 21.49931821 122.2709173 30.09690414 126.60440063 38.66949463 C128.35513585 42.13117919 130.12482917 45.58313919 131.89453125 49.03515625 C132.24607773 49.72152161 132.59762421 50.40788696 132.95982361 51.11505127 C135.98391922 57.00353885 139.11976081 62.82621473 142.3125 68.625 C142.78469971 69.48834961 143.25689941 70.35169922 143.7434082 71.24121094 C145.68197888 74.78537505 147.6241571 78.32696024 149.59375 81.85400391 C151.18348519 84.70626017 152.74953124 87.57050994 154.3125 90.4375 C155.04303589 91.72551514 155.04303589 91.72551514 155.78833008 93.03955078 C157.73448229 96.64783962 158.96920361 99.22193824 159.1328125 103.35546875 C157.44614644 108.78188059 155.06212575 113.78046417 152.5625 118.875 C152.05912109 119.93203125 151.55574219 120.9890625 151.03710938 122.078125 C147.26839365 129.86580317 147.26839365 129.86580317 145 131 C144.41621582 129.85748779 143.83243164 128.71497559 143.23095703 127.5378418 C141.01417139 123.20017614 138.79586246 118.86329089 136.57714844 114.52661133 C135.62655308 112.66809193 134.67634271 110.80937555 133.7265625 108.95043945 C128.37888249 98.48450851 122.99213995 88.04213282 117.50215149 77.65007019 C115.04140789 72.98940767 112.60911492 68.31618524 110.20703125 63.625 C109.63919922 62.51769531 109.07136719 61.41039062 108.48632812 60.26953125 C107.35533174 58.0603271 106.22781448 55.84933889 105.10351562 53.63671875 C103.44060826 50.40212636 101.7367483 47.19549644 100 44 C99.46165527 42.99453125 98.92331055 41.9890625 98.36865234 40.953125 C97.81773926 39.99921875 97.26682617 39.0453125 96.69921875 38.0625 C96.22701904 37.22847656 95.75481934 36.39445312 95.26831055 35.53515625 C91.03711792 30.80620305 86.2263621 27.51721717 79.87837219 26.49957275 C76.3579464 26.34514895 72.88561008 26.37760471 69.36328125 26.4765625 C66.73893388 26.48737134 64.11458481 26.49777598 61.49023438 26.5078125 C58.0759047 26.5461288 54.66188309 26.60006757 51.2479248 26.66314697 C46.57762704 26.74928575 41.90949451 26.77678511 37.23828125 26.7890625 C36.01522781 26.82730133 34.79217438 26.86554016 33.53205872 26.90493774 C25.19731057 26.9045723 25.19731057 26.9045723 21.77986145 24.32267761 C20.00881698 22.29949283 18.49984647 20.22872959 17 18 C15.55241455 16.49239235 14.08830193 15.00020229 12.59765625 13.53515625 C11.85322266 12.79845703 11.10878906 12.06175781 10.34179688 11.30273438 C9.58962891 10.56345703 8.83746094 9.82417969 8.0625 9.0625 C6.53031272 7.55565907 5.00023481 6.04666913 3.47265625 4.53515625 C2.80500244 3.879104 2.13734863 3.22305176 1.44946289 2.54711914 C0 1 0 1 0 0 Z " fill="#FBFBFB" transform="translate(104,182)"/>
<path d="M0 0 C4.42410477 3.71087293 6.64850664 8.52210661 9.25 13.5625 C9.93835938 14.85704102 9.93835938 14.85704102 10.640625 16.17773438 C14 22.61153739 14 22.61153739 14 26 C4.69750867 34.54695904 -5.39791759 40.1399629 -18.16723633 40.11352539 C-19.38812454 40.11344986 -20.60901276 40.11337433 -21.86689758 40.11329651 C-23.17539169 40.10813522 -24.4838858 40.10297394 -25.83203125 40.09765625 C-27.19251961 40.09578961 -28.55300865 40.09436687 -29.91349792 40.09336853 C-33.48255287 40.08956275 -37.05156669 40.07974914 -40.62060547 40.06866455 C-44.26724695 40.05840863 -47.91389511 40.05386197 -51.56054688 40.04882812 C-58.70704801 40.03812503 -65.85352131 40.02107204 -73 40 C-72.9682518 40.65517105 -72.9365036 41.3103421 -72.90379333 41.98536682 C-72.7767657 44.99117927 -72.6986126 47.99642591 -72.62109375 51.00390625 C-72.57029663 52.03439087 -72.51949951 53.06487549 -72.46716309 54.12658691 C-72.34206099 60.60739141 -73.08222634 64.37870632 -77.39831543 69.3059082 C-79.6566864 71.52004936 -81.98410282 73.62081173 -84.41455078 75.64404297 C-86.49468347 77.42307854 -88.24263657 79.40603689 -90 81.5 C-90.51820312 82.098125 -91.03640625 82.69625 -91.5703125 83.3125 C-93.02321607 85.02740258 -94.45042419 86.76153461 -95.875 88.5 C-96.57625 89.325 -97.2775 90.15 -98 91 C-98.33 91 -98.66 91 -99 91 C-99 65.92 -99 40.84 -99 15 C-93.19664063 14.98582031 -87.39328125 14.97164063 -81.4140625 14.95703125 C-77.72259631 14.93695815 -74.03125284 14.91542565 -70.33984375 14.88867188 C-64.48937219 14.846408 -58.63921194 14.80935161 -52.78857422 14.80444336 C-48.06797609 14.80014351 -43.34807662 14.77154172 -38.62769699 14.72656822 C-36.83296158 14.71364692 -35.03814232 14.70926638 -33.24336624 14.71384621 C-17.89895603 14.84391942 -17.89895603 14.84391942 -5.05239868 7.09846497 C-3.0238942 4.85508092 -1.35343818 2.70687635 0 0 Z " fill="#FBFBFB" transform="translate(202,243)"/>
<path d="M0 0 C2.25305171 2.09119455 3.81355395 4.09504423 5.25 6.8125 C5.60578125 7.45832031 5.9615625 8.10414063 6.328125 8.76953125 C7.80508405 13.67269183 5.64564392 18.21925727 3.49609375 22.6171875 C3.00302734 23.63554687 2.50996094 24.65390625 2.00195312 25.703125 C1.48568359 26.74984375 0.96941406 27.7965625 0.4375 28.875 C-0.08263672 29.94492188 -0.60277344 31.01484375 -1.13867188 32.1171875 C-2.41895181 34.74822149 -3.70622419 37.37558323 -5 40 C-5.99 40 -6.98 40 -8 40 C-9.06640852 38.30700116 -10.1023141 36.59476329 -11.125 34.875 C-11.70507812 33.92367187 -12.28515625 32.97234375 -12.8828125 31.9921875 C-14 29 -14 29 -13.52734375 26.33984375 C-11.26856404 21.40056843 -8.89018852 16.53320857 -6.4375 11.6875 C-5.93025391 10.67365234 -5.42300781 9.65980469 -4.90039062 8.61523438 C-1.14048812 1.14048812 -1.14048812 1.14048812 0 0 Z " fill="#F8F8F8" transform="translate(286,211)"/>
<path d="M0 0 C3.73561413 1.24520471 4.03968193 2.2695885 5.8125 5.6875 C6.27269531 6.53699219 6.73289062 7.38648438 7.20703125 8.26171875 C9.12152894 14.87286593 3.42402398 22.48334109 0.5 28.3125 C0.00113281 29.32634766 -0.49773437 30.34019531 -1.01171875 31.38476562 C-1.49253906 32.34705078 -1.97335937 33.30933594 -2.46875 34.30078125 C-2.90638672 35.17903564 -3.34402344 36.05729004 -3.79492188 36.9621582 C-5 39 -5 39 -7 40 C-8.0384211 38.28133783 -9.05514635 36.54955402 -10.0625 34.8125 C-10.91521484 33.36810547 -10.91521484 33.36810547 -11.78515625 31.89453125 C-13.2134765 28.49136307 -12.97193973 27.48829678 -12 24 C-11.14971484 22.06110383 -10.23625297 20.14925585 -9.27734375 18.26171875 C-8.47006836 16.66166992 -8.47006836 16.66166992 -7.64648438 15.02929688 C-7.08251953 13.92650391 -6.51855469 12.82371094 -5.9375 11.6875 C-5.08575195 10.00430664 -5.08575195 10.00430664 -4.21679688 8.28710938 C-2.81657023 5.52195592 -1.41081335 2.75976284 0 0 Z " fill="#F7F7F7" transform="translate(267,294)"/>
</svg>
